<svg xmlns="http://www.w3.org/2000/svg" width="35.159" height="23.274" viewBox="0 0 35.159 23.274"><defs><style>.a{opacity:0.31;}</style></defs><path class="a" d="M19.58,9A18.9,18.9,0,0,0,2,20.637,18.9,18.9,0,0,0,19.58,32.274a18.9,18.9,0,0,0,17.58-11.637A18.89,18.89,0,0,0,19.58,9Zm0,19.4a7.88,7.88,0,0,1-7.991-7.758,7.88,7.88,0,0,1,7.991-7.758,7.88,7.88,0,0,1,7.991,7.758A7.88,7.88,0,0,1,19.58,28.4Zm0-12.413a4.657,4.657,0,1,0,4.794,4.655A4.73,4.73,0,0,0,19.58,15.982Z" transform="translate(-2 -9)"/></svg>